Coordinates
version=1
nRows=38
nColumns=12
inDegrees=yes

Units are S.I. units (second, meters, Newtons, ...)
Angles are in degrees

endheader
time	SC_y	SC_z	SC_x	AC_y	AC_z	AC_x	GH_y	GH_z	GH_yy	EL_x	PS_y
       0.0               -23.6         -2.462          10.43          34.92          -2.58         -8.039         -48.37         -18.42         -5.684          8.065          11.43
   0.02432               -23.6         -2.461          10.44          34.92         -2.582         -8.038         -48.38         -18.41         -5.665           8.08          11.45
   0.04865              -23.61          -2.46          10.45          34.93         -2.583         -8.037          -48.4         -18.41         -5.645          8.096          11.47
   0.07297              -23.61         -2.459          10.46          34.93         -2.584         -8.036         -48.41          -18.4         -5.623          8.114          11.49
    0.0973              -23.62         -2.457          10.47          34.94         -2.586         -8.035         -48.42          -18.4           -5.6          8.132          11.51
    0.1216              -23.62         -2.456          10.48          34.94         -2.587         -8.034         -48.44         -18.39         -5.576          8.152          11.53
    0.1459              -23.62         -2.455           10.5          34.95         -2.589         -8.032         -48.46         -18.39          -5.55          8.173          11.56
    0.1703              -23.63         -2.453          10.51          34.95         -2.591         -8.031         -48.47         -18.38         -5.522          8.196          11.59
    0.1946              -23.63         -2.452          10.52          34.96         -2.593         -8.029         -48.49         -18.37         -5.492           8.22          11.61
    0.2189              -23.64          -2.45          10.54          34.97         -2.595         -8.028         -48.51         -18.36          -5.46          8.246          11.65
    0.2432              -23.64         -2.448          10.56          34.98         -2.597         -8.026         -48.53         -18.36         -5.425          8.273          11.68
    0.2676              -23.65         -2.446          10.57          34.98         -2.599         -8.024         -48.56         -18.35         -5.388          8.303          11.71
    0.2919              -23.66         -2.444          10.59          34.99         -2.602         -8.022         -48.58         -18.34         -5.348          8.336          11.75
    0.3162              -23.66         -2.442          10.62           35.0         -2.605          -8.02         -48.61         -18.33         -5.305           8.37           11.8
    0.3405              -23.67         -2.439          10.64          35.01         -2.608         -8.017         -48.64         -18.31         -5.258          8.408          11.84
    0.3649              -23.68         -2.437          10.66          35.02         -2.611         -8.015         -48.67          -18.3         -5.208          8.449          11.89
    0.3892              -23.69         -2.434          10.69          35.04         -2.615         -8.012         -48.71         -18.29         -5.152          8.493          11.94
    0.4135               -23.7         -2.431          10.72          35.05         -2.619         -8.009         -48.75         -18.27         -5.092          8.542           12.0
    0.4378              -23.71         -2.427          10.75          35.06         -2.623         -8.006         -48.79         -18.26         -5.027          8.595          12.07
    0.4622              -23.72         -2.423          10.79          35.08         -2.627         -8.002         -48.83         -18.24         -4.955          8.653          12.13
    0.4865              -23.74         -2.419          10.82           35.1         -2.632         -7.998         -48.88         -18.22         -4.876          8.716          12.21
    0.5108              -23.75         -2.415          10.87          35.12         -2.638         -7.994         -48.94          -18.2         -4.789          8.786           12.3
    0.5351              -23.77          -2.41          10.91          35.14         -2.644         -7.989          -49.0         -18.18         -4.694          8.863          12.39
    0.5595              -23.78         -2.404          10.96          35.16         -2.651         -7.983         -49.07         -18.15         -4.587          8.949          12.49
    0.5838               -23.8         -2.398          11.02          35.19         -2.659         -7.977         -49.14         -18.12         -4.469          9.044          12.61
    0.6081              -23.83         -2.391          11.09          35.22         -2.667         -7.971         -49.23         -18.09         -4.338           9.15          12.73
    0.6324              -23.85         -2.383          11.16          35.25         -2.677         -7.963         -49.32         -18.05          -4.19          9.269          12.88
    0.6568              -23.88         -2.375          11.24          35.29         -2.687         -7.955         -49.43         -18.01         -4.024          9.403          13.04
    0.6811              -23.91         -2.365          11.33          35.33         -2.699         -7.945         -49.55         -17.96         -3.837          9.554          13.22
    0.7054              -23.94         -2.354          11.43          35.38         -2.713         -7.934         -49.68         -17.91         -3.624          9.726          13.43
    0.7297              -23.98         -2.341          11.55          35.43         -2.729         -7.922         -49.84         -17.85         -3.381          9.922          13.66
    0.7541              -24.03         -2.326          11.69           35.5         -2.747         -7.908         -50.01         -17.78         -3.102          10.15          13.93
    0.7784              -24.08         -2.309          11.84          35.57         -2.768         -7.891         -50.22          -17.7          -2.78          10.41          14.24
    0.8027              -24.15          -2.29          12.02          35.65         -2.792         -7.872         -50.46         -17.61         -2.406          10.71          14.61
     0.827              -24.22         -2.267          12.24          35.75          -2.82          -7.85         -50.74          -17.5         -1.968          11.06          15.03
    0.8514              -24.31          -2.24          12.49          35.86         -2.853         -7.824         -51.06         -17.38         -1.452          11.48          15.53
    0.8757              -24.41         -2.207          12.79           36.0         -2.893         -7.793         -51.45         -17.23         -0.839          11.97          16.13
       0.9              -24.53         -2.169          13.14          36.17          -2.94         -7.755         -51.92         -17.04        -0.1039          12.56          16.84
